<svg version="1.1" id="Layer_1" xmlns="http://www.w3.org/2000/svg" xmlns:xlink="http://www.w3.org/1999/xlink" x="0px" y="0px"
	 width="864px" height="864px" viewBox="0 0 864 864" enable-background="new 0 0 864 864" xml:space="preserve">
<g>
	<g>
		<g>
			<path d="M475.0559,296.4793c0.9187,0.9178,2.1651,1.3833,3.7053,1.3833c1.702,0,3.2392-0.983,3.9308-2.5401
				c0.603-1.5083,0.5721-3.2138-0.0827-4.5623c-0.5383-1.1079-1.4411-1.8758-2.6775-2.2368
				c-1.5476-0.3456-3.1068,0.0334-4.2759,1.0348l-0.1559,0.1339l-0.0921,0.1837c-0.0463,0.0921-0.0936,0.1603-0.1399,0.2296
				c-0.0627,0.0936-0.124,0.1877-0.1862,0.2973c-0.4591,0.484-0.7783,0.9904-0.9501,1.5063l-0.0279,0.1011
				c-0.3774,1.6971-0.0498,3.3049,0.8988,4.4114L475.0559,296.4793z"/>
			<path d="M771.3405,322.9565c-0.7753-1.0442-2.0347-1.6258-3.1993-1.4685c-1.0104,0.131-1.8265,0.7982-2.2278,1.8031
				c-3.1003,7.1312-7.1218,11.9385-12.2975,14.6996c-2.696,1.4515-5.7977,2.3528-9.4472,2.7422
				c0.9461-5.4611-1.0189-11.1258-5.3765-15.3385c-4.4587-4.1739-10.1159-6.2882-15.587-8.3328
				c-2.2811-0.8525-4.632-1.7314-6.8379-2.7452c0.8485-3.4902,1.1373-6.3673,0.9108-8.9288c0-3.0734-1.0039-5.6299-2.9011-7.3916
				c-2.5057-2.3389-5.7299-3.1292-8.6415-2.1108c-2.3055,0.8435-3.9841,2.553-4.8536,4.9432
				c-1.1517,3.1675-0.7339,7.2328,1.0865,10.3938c1.4346,2.2717,3.5938,4.3342,6.4246,6.1388
				c-0.5504,1.6264-1.2655,3.4206-2.1425,5.4028c-0.106,0.1666-0.2111,0.3346-0.2881,0.5273
				c-3.1002,7.1312-7.1217,11.9385-12.2975,14.6996c-2.6959,1.4515-5.7977,2.3528-9.4472,2.7422
				c0.9461-5.4611-1.0188-11.1258-5.3764-15.3385c-4.4587-4.1739-10.116-6.2882-15.587-8.3328
				c-2.2811-0.8525-4.632-1.7314-6.8379-2.7452c0.8485-3.4902,1.1373-6.3673,0.9107-8.9288c0-3.0734-1.0038-5.6299-2.9011-7.3916
				c-2.5052-2.3389-5.731-3.1292-8.6415-2.1108c-2.3055,0.8435-3.9841,2.553-4.8536,4.9432
				c-1.1518,3.1675-0.734,7.2328,1.0865,10.3938c1.4346,2.2717,3.5938,4.3342,6.4246,6.1388
				c-0.7893,2.3324-1.8948,4.9835-3.3727,8.0883c-0.0029,0.0065-0.0035,0.0129-0.0064,0.0194
				c-4.6896,9.5396-11.629,16.4094-19.6339,19.3829c-6.8384,2.5789-16.1537,2.6511-21.5565-3.0092
				c-2.9539-3.0634-4.8431-7.3787-5.3072-12.0311c0.0771,0.0294,0.1528,0.0587,0.2275,0.0871l0.3974,0.1524
				c3.1989,1.454,6.4749,2.2607,9.7166,2.3957c7.7203,0.4855,14.246-3.29,16.6188-9.619
				c2.3499-6.4216-0.3172-13.6505-6.0517-16.4479c-4.9651-2.5535-11.675-2.3832-16.7084,0.4297
				c-6.4725,3.7237-9.8623,10.5035-10.6637,17.5721c-0.0168,0.0346-0.0418,0.061-0.0577,0.0963
				c-3.7635,7.8547-7.3802,13.2451-11.7233,17.4742c-3.0574,2.9484-7.8453,6.4923-13.262,6.6313
				c-4.2784,0-7.8115-1.8893-9.6877-5.1722c-1.8873-3.3966-2.1776-7.6645-2.3135-11.7478c-0.0513-1.4112-0.0339-2.9469-0.015-4.5722
				c0.0826-7.1357,0.1768-15.2235-5.2011-20.0163c-2.6178-2.3802-5.8938-3.5315-9.496-3.3293
				c-4.2714,0.2405-8.6166,2.428-11.6307,5.8609c-1.462,1.706-2.8094,3.6356-3.9936,5.709c0.134-2.9439,0.3058-5.954,0.494-9.1574
				c0.1041-1.1488-0.3316-2.1572-1.1956-2.7667c-0.9631-0.6792-2.3275-0.7743-3.4782-0.243
				c-1.1359,0.5253-1.8534,1.5551-1.9709,2.8508c-0.3871,5.9177-0.5927,11.8754-0.7477,17.7496
				c-0.1425,0.1852-0.2737,0.3869-0.3862,0.612c-2.8224,6.208-13.1421,26.1157-27.521,21.5565
				c-7.2208-2.2567-9.7943-10.7509-10.5681-14.3097c-1.8952-8.2596-0.2694-17.9458,1.3644-25.4868
				c0.2285-1.2011-0.1688-2.3459-1.091-3.1416c-0.98-0.846-2.3558-1.1348-3.4991-0.736c-0.9909,0.3456-1.6796,1.1752-1.8848,2.2548
				c-1.3131,6.1896-2.4486,13.145-2.3023,20.0106c-0.0184,0.0374-0.0457,0.0659-0.063,0.1043
				c-3.6923,7.6914-8.6251,12.8622-14.6832,15.3769c-3.5459,1.5651-7.5569,2.2562-12.5405,2.1477
				c4.266-8.3343,3.9876-19.0811-0.8286-26.7073c-3.6052-5.8241-10.2559-9.0703-17.3707-8.4812
				c-5.3515,0.487-10.0009,2.6257-14.1668,6.5257c-0.973-2.3658-2.0048-4.1779-3.274-5.7638
				c-2.7283-3.2088-6.5386-4.7027-10.1633-4.008c-4.2754,0.6936-8.2675,3.8058-12.2133,9.5284
				c-2.1721,3.2582-4.1258,6.8902-5.964,11.0287c-0.0714,0.1175-0.1547,0.223-0.2132,0.3531
				c-3.6924,7.6914-8.6251,12.8622-14.6832,15.3769c-3.5459,1.5651-7.5575,2.2562-12.5405,2.1477
				c4.266-8.3343,3.9876-19.0811-0.8286-26.7073c-3.6052-5.8241-10.2544-9.0703-17.3707-8.4812
				c-5.3515,0.487-10.0009,2.6257-14.1668,6.5257c-0.973-2.3658-2.0048-4.1779-3.274-5.7638
				c-2.7278-3.2088-6.5381-4.7027-10.1633-4.008c-4.2755,0.6936-8.2675,3.8058-12.2133,9.5284
				c-2.1107,3.166-4.0135,6.6908-5.8064,10.6834c-0.0341,0.0602-0.0753,0.1113-0.1068,0.1745
				c-6.5815,14.4362-14.2171,21.8562-22.7112,22.0539c-3.1615,0.113-6.1711-1.0731-8.4827-3.3841
				c-4.7604-4.503-5.5193-12.2009-5.6488-18.383v-1.1039c-0.1803-9.749-3.9851-16.4415-10.7185-18.8461
				c-7.6939-2.7004-16.7069,0.2639-22.4294,7.3792c-2.7026,3.394-4.5563,7.6807-5.4743,12.1859
				c-0.0732,0.12-0.1578,0.2278-0.2178,0.361c-2.1034,4.5164-13.3258,26.7382-27.6987,20.7876
				c-6.1492-2.6352-9.604-9.5289-11.1104-13.389c-3.4254-9.1798-4.015-19.5139-4.14-28.3974c0-3.3024,0-6.7124,0.1175-10.0677
				c10.5835-8.3283,16.5645-17.9049,17.78-28.4805c0.2022-1.9226,0.6-8.4677-2.7861-11.9554
				c-1.4993-1.5442-3.4882-2.2313-5.9301-2.0501c-4.4851,0.4721-7.9533,3.8726-10.6099,10.4122
				c-2.3648,6.1199-3.3179,12.7362-3.9946,18.9631c-0.3899,3.2492-0.6583,6.3997-0.9152,9.5991
				c-2.9668,2.0755-6.1712,4.0115-9.5493,5.7683c-5.6204,3.0858-11.8732,5.9436-20.1348,9.1967
				c-0.121-2.0785-0.2599-4.1529-0.3984-6.2249c-0.6543-9.7754-1.331-19.8839,0.0543-29.6945
				c0.3964-2.1148,0.8067-4.3023,1.3395-6.2991l0.0344-0.2629c0-0.1828,0.0627-0.4277,0.1439-0.736
				c2.4245-1.7677,3.8955-4.6026,4.0573-7.8463c0.0866-0.6583-0.1345-1.4037-0.6125-2.0571
				c-0.495-0.6752-1.1826-1.1204-1.8459-1.214c-4.4846-0.8301-6.2523,3.5639-7.2069,6.3674
				c-4.1963,0.6931-11.6536-2.3668-14.5343-3.5519l-0.4576-0.1872c-5.8589-2.2538-10.9246-3.2999-16.6058-1.0836
				c-5.4616,2.1313-9.1166,7.2706-9.5383,13.4119c-0.4302,6.2543,2.553,11.9549,7.8069,14.8884
				c1.8947,0.9964,3.774-0.0179,4.5817-1.4799c0.7708-1.3953,0.6219-3.3458-1.1881-4.3925
				c-3.9632-2.0984-5.6428-6.9355-3.9886-11.5177c1.5053-4.388,6.6308-6.1383,10.6597-5.5652
				c2.7741,0.4855,5.4158,1.5511,8.2123,2.6795c2.4494,0.9879,4.9825,2.0097,7.5848,2.5953
				c2.1188,0.5293,4.019,0.8401,5.7688,0.9421c-0.8221,3.9742-1.1622,7.9792-1.3853,11.4305
				c-0.4666,7.2796,0.0274,14.6469,0.5044,21.7716c0.2216,3.3029,0.4506,6.7184,0.5786,10.0313v0.369
				c-1.4734,0.5328-2.924,1.0656-4.3755,1.5989c-1.6512,0.6065-3.3024,1.213-4.99,1.8205l-1.1299,0.4093
				c-5.6199,2.0331-11.432,4.135-16.1731,8.3497c-4.8511,4.5483-7.786,10.587-8.0509,16.5461
				c-0.356,5.4142,1.6243,10.5666,5.4337,14.1359c3.1122,2.9155,7.053,4.4582,11.2787,4.4582c0.7693,0,1.5486-0.0513,2.3334-0.1544
				c12.6605-1.5651,19.9889-13.6191,21.6376-24.8838c0.6966-5.2245,0.964-10.8803,0.8371-17.7476
				c9.1649-3.4911,19.5577-7.6979,29.0193-13.6654c-0.0139,0.6015-0.0139,1.2105-0.0139,1.8325
				c-0.1086,8.0659,0.129,20.0227,3.4319,30.683c2.4748,8.4124,6.4849,14.6195,11.9126,18.4438
				c11.5127,8.2631,24.9426,1.0781,33.1404-9.7007c0.4942-0.6424,0.9744-1.3117,1.4484-1.9985
				c0.2644,1.1039,0.5895,2.1825,0.9936,3.217c1.8947,5.2091,5.612,9.3376,9.9332,11.0396
				c4.8546,1.9719,10.6946,1.6258,14.9018-0.8978c3.7033-2.3573,6.7119-5.8644,8.9662-10.4476
				c2.2478,5.603,5.9386,9.4606,11.0058,11.4878c2.0028,0.7728,4.1171,1.1513,6.2827,1.1513c5.5487,0,11.431-2.4858,16.6137-7.1865
				c6.0143-5.5631,9.8764-12.7267,12.5694-18.3466l0.0104-0.0224c0.1267-0.2817,0.2061-0.5588,0.2585-0.8316
				c2.4957-5.5016,5.3656-10.957,9.6115-14.5149c1.3569-1.0557,2.4803-1.592,3.5863-1.6945
				c0.7893-0.1115,1.5083,0.0244,2.1935,0.4158c2.311,1.338,3.7103,4.8884,4.5399,7.3667l0.2893,1.1577
				c-4.5643,6.1363-8.6141,13.6863-12.7218,23.7071c-3.541,8.6395-6.206,17.3727-7.9254,25.9723
				c-1.1642,6.337-2.3474,13.6903-1.6398,20.7622c0.374,3.8701,1.3778,9.3406,5.7758,12.167
				c2.064,1.2519,4.0668,1.8788,5.9879,1.8788c1.1786-0.0005,2.3269-0.2365,3.4389-0.7091
				c6.811-2.8941,10.5984-13.9442,12.5768-22.7053c2.5057-11.1482,3.7003-23.6847,3.5514-37.2505
				c0-5.5437-0.1713-12.8408-1.5058-20.1049c-0.1125-0.6762-0.2251-1.4466-0.3376-2.2323
				c4.9566-5.6956,10.4541-7.9748,16.3638-6.7712c4.8889,0.9446,7.3712,4.3551,8.5922,7.0496
				c2.551,5.6299,2.1278,13.6066-1.0004,18.9576c-0.2943,0.49-0.5766,0.9605-0.9043,1.4241c-0.849-0.1892-1.714-0.4068-2.556-0.6184
				c-2.9494-0.741-5.9939-1.5083-9.0269-1.2987c-2.7198,0.1872-5.1513,1.3206-6.6711,3.1087
				c-1.2285,1.446-1.7812,3.2417-1.5979,5.1952c0.4471,4.6215,5.1344,6.5137,9.604,6.3454c3.2447-0.1409,6.3723-1.102,9.2963-2.8568
				c1.0099-0.606,2.447-1.5332,3.6749-2.7935c12.9862,1.6711,24.5791-2.4718,31.8412-11.3907
				c1.9709-2.3177,3.6697-5.0077,5.1956-8.1429c0.1454-0.1962,0.2794-0.408,0.388-0.6495
				c2.687-6.081,5.7061-12.3493,10.4088-16.2901c1.3569-1.0557,2.4803-1.592,3.5863-1.6945
				c0.7897-0.1115,1.5083,0.0244,2.1935,0.4158c2.311,1.338,3.7103,4.8884,4.5399,7.3667l0.2893,1.1577
				c-4.5643,6.1363-8.6141,13.6863-12.7217,23.7071c-3.541,8.6395-6.206,17.3727-7.9254,25.9723
				c-1.1642,6.337-2.3474,13.6903-1.6398,20.7622c0.374,3.8701,1.3778,9.3406,5.7758,12.167
				c2.064,1.2519,4.0668,1.8788,5.9879,1.8788c1.1786-0.0005,2.3269-0.2365,3.4389-0.7091
				c6.811-2.8941,10.5985-13.9442,12.5768-22.7053c2.5057-11.1482,3.7003-23.6847,3.5514-37.2505
				c0-5.5437-0.1713-12.8408-1.5058-20.1049c-0.1125-0.6762-0.2251-1.4466-0.3376-2.2323
				c4.9571-5.6956,10.4546-7.9748,16.3638-6.7712c4.8889,0.9446,7.3712,4.3551,8.5922,7.0496
				c2.551,5.6299,2.1277,13.6066-1.0004,18.9576c-0.2943,0.49-0.5766,0.9605-0.9043,1.4241c-0.849-0.1892-1.714-0.4068-2.556-0.6184
				c-2.9489-0.741-5.9949-1.5083-9.0269-1.2987c-2.7198,0.1872-5.1513,1.3206-6.6711,3.1087
				c-1.2285,1.446-1.7812,3.2417-1.5979,5.1952c0.4472,4.6215,5.1279,6.5137,9.6041,6.3454
				c3.2447-0.1409,6.3723-1.102,9.2963-2.8568c1.0099-0.606,2.447-1.5332,3.6749-2.7935
				c12.9842,1.6711,24.5795-2.4718,31.8412-11.3907c0.5006-0.5887,0.9799-1.2063,1.4479-1.8417
				c1.0838,3.9367,2.8424,7.6781,5.5204,11.0359c3.4683,4.4009,9.1031,7.054,14.8779,7.054c0.2973,0,0.595-0.007,0.8928-0.0209
				c5.2624-0.2564,10.4446-2.5764,15.3972-6.8902c2.639-2.2622,5.1086-5.0663,7.3998-8.3649
				c-0.1006,3.8188-0.221,7.6755-0.4001,11.5239c0,1.8783,1.3674,3.1899,3.3253,3.1899c2.0381,0,3.4613-1.3116,3.4608-3.1521
				c0.3008-8.1326,1.2648-15.0661,2.9469-21.1945c1.6139-5.8091,3.5808-10.0472,6.213-13.3666
				c1.4949-2.0287,3.9612-4.4741,7.2258-4.6046c2.9275-0.1275,5.4098,1.209,6.4958,3.4911
				c1.3066,2.7218,1.3992,6.2762,1.4809,9.4124c0.014,0.5358,0.0279,1.0631,0.0468,1.569c0.0334,1.1403,0.0503,2.2727,0.0672,3.3986
				c0.0498,3.3701,0.1021,6.8553,0.6245,10.3027c0.8759,5.2554,2.6108,9.1186,5.3182,11.8249
				c3.1689,3.0425,7.7367,4.7928,12.3901,4.7928c0.3705,0,0.7425-0.011,1.1135-0.0334c9.3983-0.4477,18.0727-6.9222,25.4087-18.8371
				c0.1431,0.4591,0.2819,0.9207,0.4481,1.3659c2.3981,6.2354,6.5441,10.8703,11.6392,13.0349
				c3.5634,1.6766,7.3374,2.5197,11.2588,2.5192c1.2578,0,2.5311-0.0866,3.8168-0.2599
				c12.1592-1.5497,23.262-10.2514,30.0377-23.4086c0.2202-0.2343,0.4264-0.5263,0.5945-0.9001
				c1.3928-2.925,2.561-5.6712,3.4787-8.1799c0.1325,0.0543,0.2609,0.1046,0.3799,0.1459c1.4341,0.6429,3.1262,1.2877,4.9163,1.9699
				c8.5454,3.2566,19.1802,7.309,18.0484,16.4674c-0.0851,0.5941-0.2336,1.1463-0.4601,1.701h-0.4999
				c-0.9491-0.123-2.1263-0.3715-3.3707-0.6344c-4.3312-0.9167-9.7225-2.0556-13.134,0.2669
				c-1.5372,1.0462-2.5047,2.688-2.8777,4.8909c-0.4208,2.6641,0.3456,4.9029,2.2154,6.4744
				c1.9794,1.6632,5.0159,2.3862,7.9738,2.3862c1.8624,0,3.6934-0.2863,5.2096-0.8057c3.1804-0.9277,6.1517-3.0216,8.2292-5.7827
				c5.8729,0.0837,11.1995-1.214,15.848-3.7974c5.4114-2.9818,9.9462-7.8102,13.2634-14.068
				c0.2713-0.2526,0.5283-0.5846,0.7307-1.0345c1.3928-2.925,2.561-5.6712,3.4787-8.1799c0.1324,0.0543,0.2609,0.1046,0.3799,0.1459
				c1.4341,0.6429,3.1262,1.2877,4.9163,1.9699c8.5453,3.2566,19.1802,7.309,18.0483,16.4674
				c-0.0851,0.5941-0.2335,1.1463-0.4601,1.701h-0.5c-0.9491-0.123-2.1262-0.3715-3.3706-0.6344
				c-4.3317-0.9167-9.7226-2.0556-13.1341,0.2669c-1.5372,1.0462-2.5047,2.688-2.8777,4.8909
				c-0.4208,2.6641,0.3456,4.9029,2.2154,6.4744c1.9794,1.6632,5.0159,2.3862,7.9738,2.3862c1.8624,0,3.6934-0.2863,5.2097-0.8057
				c3.1804-0.9277,6.1517-3.0216,8.2292-5.7827c5.8664,0.0837,11.1995-1.214,15.8479-3.7974
				c6.3105-3.4772,11.4345-9.4597,14.8181-17.3C772.2393,325.2437,772.1028,323.9833,771.3405,322.9565z M706.8344,304.7095
				c0-1.2892,0.8022-2.3483,1.5457-2.5898c0.7479-0.244,1.3729,0.3466,1.7399,0.85c1.2638,1.8947,0.6035,5.5019,0.1145,7.5395
				c-0.1713-0.129-0.3525-0.2569-0.5453-0.3774C707.7422,308.3137,706.8344,306.5888,706.8344,304.7095z M646.8836,304.7095
				c0-1.2892,0.8022-2.3483,1.5457-2.5898c0.7495-0.244,1.3729,0.3466,1.7399,0.85c1.2638,1.8947,0.6035,5.5019,0.1146,7.5395
				c-0.1713-0.129-0.3526-0.2569-0.5453-0.3774C647.7914,308.3137,646.8836,306.5888,646.8836,304.7095z M599.1208,322.5263
				c0.4029-1.5865,0.8939-2.8842,1.5397-4.0688c1.9495-3.9,5.1842-6.4669,8.8905-7.0466c3.7202-0.6438,8.3512,0.2863,9.7161,3.8114
				c0.8385,2.3678,0.6045,4.6479-0.6772,6.5929c-1.5377,2.3339-4.4691,3.9124-7.6332,4.1186
				c-2.4718,0.12-5.2778-0.4198-8.1475-1.567C601.1525,323.7642,599.915,323.1463,599.1208,322.5263z M392.615,394.2154
				c-1.706-3.8049-1.3748-8.9308-1.1334-12.674c0.8635-13.4542,4.8924-27.8401,11.9783-42.7663
				c1.4869-3.2024,3.2492-6.8414,5.3535-10.3689c0.2017,1.7523,0.3471,3.5116,0.4347,5.2614
				c0.6573,9.731,0.4307,19.847-0.6747,30.073c-0.7469,7.3179-1.8902,13.6962-3.4882,19.4745l-0.248,0.8226
				c-1.2822,4.2729-2.8782,9.5901-6.441,12.0849c-1.0532,0.7903-2.1044,0.7514-2.8,0.5791
				C394.3553,396.3944,393.1816,395.4109,392.615,394.2154z M301.1974,394.2154c-1.706-3.8049-1.3748-8.9308-1.1333-12.674
				c0.8634-13.4542,4.8924-27.8401,11.9783-42.7663c1.4869-3.2024,3.2491-6.8414,5.3535-10.3689
				c0.2017,1.7523,0.3471,3.5116,0.4347,5.2614c0.6573,9.731,0.4308,19.847-0.6747,30.073
				c-0.7469,7.3179-1.8902,13.6962-3.4882,19.4745l-0.248,0.8226c-1.2823,4.2729-2.8782,9.5901-6.4411,12.0849
				c-1.0532,0.7903-2.1039,0.7514-2.8,0.5791C302.9378,396.3944,301.7641,395.4109,301.1974,394.2154z M245.807,323.2907v0.125
				c-0.0777,3.6809-0.8156,12.8223-5.956,18.4298c-3.0495,3.1879-5.7982,4.3959-9.505,4.1629
				c-3.5479-0.2291-6.6009-2.3972-8.3851-5.965c-3.5654-6.821-2.4574-17.403,2.5221-24.0911
				c2.1049-2.8264,5.6149-5.9127,10.8982-5.9127c0.8928,0,1.8365,0.0882,2.8324,0.2809
				C243.1519,311.3278,245.6357,315.5779,245.807,323.2907z M171.2402,284.2311c0.5493-7.0665,1.7269-13.2411,3.5903-18.8327
				c0.7385-2.4624,2.7144-8.0026,5.5193-8.0026c0.1215,0,0.2445,0.0105,0.369,0.0319c1.3171,0.247,1.4535,2.8568,1.338,4.2869
				c0,3.177-0.6324,6.4724-1.838,9.5528C178.5537,275.8465,175.6068,280.1055,171.2402,284.2311z M115.5544,346.7598
				c-3.8442,1.5666-7.8617,1.4441-10.7384-0.3271c-4.2565-2.6601-5.3565-7.9927-4.5583-12.0973
				c2.2343-11.5027,14.012-15.4286,24.4033-18.8919c1.2728-0.4243,2.5211-0.8405,3.7257-1.2618
				C128.6935,327.6891,127.1961,341.7877,115.5544,346.7598z M339.3483,346.5576c-1.4112,0.5353-2.8697,0.8052-4.3601,0.8052
				c-1.3131,0-2.0635-0.2978-2.1616-0.4232c-0.0015-0.0219,0.0115-0.1136,0.1021-0.2958c0.2679-0.5741,1.1045-0.7464,2.0376-0.7464
				c0.982,0,2.071,0.1907,2.7159,0.3038l0.361,0.0617C338.4783,346.3499,338.9131,346.4515,339.3483,346.5576z M430.7658,346.5576
				c-1.4112,0.5353-2.8697,0.8052-4.3601,0.8052c-1.3131,0-2.0635-0.2978-2.1616-0.4232c-0.0015-0.0219,0.0114-0.1136,0.1021-0.2958
				c0.2679-0.5741,1.1045-0.7464,2.0376-0.7464c0.982,0,2.071,0.1907,2.7159,0.3038l0.361,0.0617
				C429.8959,346.3499,430.3306,346.4515,430.7658,346.5576z M671.9716,346.5606c-1.2056,0.5438-2.5087,0.8689-3.8298,0.9426
				c-1.3515,0.1344-2.7413,0.2096-3.6391-0.488c-0.3002-0.2186-0.4327-0.4492-0.3934-0.6852
				c0.0513-0.3073,0.3934-0.7066,0.972-0.8869c0.3002-0.0692,0.6264-0.0996,0.968-0.0996c1.4286,0,3.1306,0.5233,4.3351,0.8943
				L671.9716,346.5606z M731.9224,346.5606c-1.2056,0.5438-2.5087,0.8689-3.8298,0.9426c-1.351,0.1344-2.7418,0.2096-3.639-0.488
				c-0.3003-0.2186-0.4327-0.4492-0.3934-0.6852c0.0513-0.3073,0.3934-0.7066,0.972-0.8869
				c0.3002-0.0692,0.6264-0.0996,0.968-0.0996c1.4286,0,3.1306,0.5233,4.3352,0.8943L731.9224,346.5606z"/>
		</g>
		<g>
			<path d="M131.1713,452.0508c0,0-4.1499,2.4704-7.5097,2.4704c-5.8301,0-8.399-3.3597-8.399-9.2884c0-0.2963,0-24.11,0-24.11
				c0-3.8542-0.494-5.1384-7.3125-3.6565v-6.818c0,0,3.6565-1.087,7.0157-1.087c5.8301,0,8.3995,3.2611,8.3995,9.1898
				c0,3.8537,0,19.96,0,23.3197c0,4.4467,0.9879,6.818,6.0272,4.2491L131.1713,452.0508z M117.9307,403.1387
				c-2.8657,0-5.2375-2.3717-5.2375-5.237c0-2.9643,2.3718-5.237,5.2375-5.237c2.9643,0,5.237,2.2727,5.237,5.237
				C123.1677,400.767,120.895,403.1387,117.9307,403.1387z"/>
			<path d="M168.1255,422.6048l-7.2134-0.7903c0,0,2.9643-4.3481-8.1027-5.5338c-6.7194-0.7903-9.7823,1.581-9.98,4.4467
				c-0.1977,2.9643,2.8657,6.0273,10.1777,7.905c12.8457,3.3597,18.1813,6.324,17.7865,14.2291
				c-0.3954,9.2883-7.6087,11.6596-18.9721,11.6596c-12.8457,0-17.8855-5.237-15.7115-13.4383l6.6203,0.8893
				c0,0-2.6675,6.2249,8.7944,6.2249c9.6837,0,11.6601-1.7782,11.9564-5.4347c0.1977-2.6676-1.1856-5.237-13.3397-7.9051
				c-13.0434-2.8652-16.4026-10.5726-14.4267-17.292c2.2727-8.0041,12.3518-8.0041,17.0948-8.0041
				C163.7779,409.5613,170.5959,414.2057,168.1255,422.6048z"/>
		</g>
		<g>
			<path d="M254.4808,452.0508c0,0-3.656,2.4704-8.0036,2.4704c-3.2606,0-6.7194-1.2842-7.6087-6.324
				c-9.0907,9.0912-25.691,8.6958-27.6674-3.3597c-1.8778-10.8694,5.6324-17.5883,17.5888-17.5883
				c4.2491,0,7.5097,0.2963,9.8809,0.7903c0-7.312-1.2842-11.3633-11.3633-11.3633c-8.399,0-5.6324,6.0273-5.6324,6.0273
				l-6.7194,0.9884c0,0-4.743-14.1305,12.8457-14.1305c12.1541,0,18.9721,5.9291,18.9721,16.6994c0,4.9407,0,9.2884,0,11.9564
				c0,3.8537-0.1977,7.7073,1.1861,8.6958c2.075,1.3833,4.743-0.5931,4.743-0.5931L254.4808,452.0508z M238.6708,442.0708
				c0-3.0629,0-6.2249,0-9.3869c-1.8773-0.4945-4.743-0.7908-9.486-0.3954c-6.818,0.5931-11.9559,4.6444-10.8694,10.7708
				C219.7978,451.2606,232.5444,448.7902,238.6708,442.0708z"/>
		</g>
		<g>
			<path d="M317.8127,482.189c-24.1105,0-29.7428-16.4031-15.8101-27.8655c-3.0634-1.8773-4.8416-4.3477-5.0393-7.312
				c-0.2968-4.4467,3.0629-8.1027,5.1379-9.98c-1.9759-2.8657-3.162-6.4226-3.162-10.3754c0-10.7708,7.3125-17.4897,18.4781-17.4897
				c5.6324,0,10.1777,1.7782,13.4388,4.743c0.494-2.7672,2.3713-4.3481,6.324-4.3481c3.3597,0,6.4226,1.087,6.4226,1.087v6.818
				c-6.1263-2.9643-8.7944-1.3833-8.6953,2.668c0.6917,1.9764,1.0865,4.1505,1.0865,6.5217c0,10.2768-7.312,17.4897-18.5767,17.4897
				c-4.3476,0-8.1027-1.1856-11.067-3.0629c-3.0629,4.2491-5.237,9.6837,14.7231,9.6837c9.7828,0,22.3318,1.581,24.0119,13.2406
				C346.5671,474.0863,338.4644,482.189,317.8127,482.189z M336.9825,465.1933c-0.3954-2.3717-2.075-6.9171-15.5138-6.9171
				c-5.237,0-9.7823-0.494-13.3397-1.4824c-9.4861,7.0157-7.5097,17.5888,9.6837,17.5888
				C334.3144,474.3826,337.6741,468.6516,336.9825,465.1933z M306.1526,426.6561c0,6.5217,4.5453,11.1656,11.2647,11.1656
				c6.6208,0,11.3638-4.6439,11.3638-11.1656c0-6.6203-4.5458-11.1656-11.3638-11.1656
				C310.6979,415.4905,306.1526,420.0358,306.1526,426.6561z"/>
			<path d="M391.2262,432.0908c0,13.2411-8.7944,22.4304-22.4304,22.4304c-13.5374,0-22.5294-9.1893-22.5294-22.4304
				c0-13.9328,8.7944-22.5294,22.5294-22.5294C382.4318,409.5613,391.2262,418.7511,391.2262,432.0908z M383.4203,432.0908
				c0-9.0907-5.8301-15.3161-14.6245-15.3161c-8.6958,0-14.723,6.2254-14.723,15.3161c0,8.9921,6.0273,15.3161,14.723,15.3161
				C377.2934,447.4069,383.4203,441.0829,383.4203,432.0908z"/>
			<path d="M443.0991,432.0908c0,13.2411-8.7944,22.4304-22.4304,22.4304c-13.5374,0-22.5295-9.1893-22.5295-22.4304
				c0-13.9328,8.7944-22.5294,22.5295-22.5294C434.3047,409.5613,443.0991,418.7511,443.0991,432.0908z M435.2932,432.0908
				c0-9.0907-5.83-15.3161-14.6244-15.3161c-8.6958,0-14.723,6.2254-14.723,15.3161c0,8.9921,6.0272,15.3161,14.723,15.3161
				C429.1664,447.4069,435.2932,441.0829,435.2932,432.0908z"/>
			<path d="M499.5169,452.0508c0,0-4.15,2.4704-7.5096,2.4704c-5.4347,0-8.0036-2.8652-8.3004-8.0036
				c-0.5926,1.8773-5.1379,8.0036-12.8457,8.0036c-13.636,0-20.8494-9.1893-20.8494-22.529
				c0-13.2411,8.5967-22.4309,22.2332-22.4309c5.731,0,9.2883,2.0755,11.4619,4.5453c0,0,0-21.541,0-24.8016
				c0-4.5458,0-6.1263-7.312-4.5458v-6.818c0,0,3.656-1.0865,7.0157-1.0865c5.83,0,8.3004,3.2606,8.3004,9.1892
				c0,0.5931,0,56.0269,0,56.0269c0,4.4467,0.9879,6.818,6.0273,4.2491L499.5169,452.0508z M483.7068,437.3278v-14.6244
				c-1.087-4.644-5.3356-6.0273-11.4619-6.0273c-8.5972,0-14.4268,6.324-14.4268,15.3161c0,9.0906,5.3356,15.3156,14.13,15.3156
				C478.9638,447.3078,482.1258,442.9601,483.7068,437.3278z"/>
		</g>
		<g>
			<path d="M590.5167,431.9922c0,13.3397-7.2134,22.529-20.8499,22.529c-7.7074,0-12.6481-6.4226-12.9443-7.8059l-1.1857,6.818
				h-6.7194c0,0,0-60.9676,0-64.2282c0-4.5458,0-6.1263-7.3125-4.5458v-6.818c0,0,3.6565-1.0865,7.0162-1.0865
				c5.8296,0,8.2999,3.2606,8.2999,9.1892c0,0.5931,0,28.0627,0,28.0627c2.1741-2.4698,5.7314-4.5453,11.4624-4.5453
				C581.9194,409.5613,590.5167,418.7511,590.5167,431.9922z M582.7102,431.9922c0-8.9921-5.8301-15.3161-14.4268-15.3161
				c-6.1263,0-10.3754,1.3833-11.4624,6.0273v14.6244c1.581,5.6324,4.743,9.98,11.7587,9.98
				C577.3741,447.3078,582.7102,441.0829,582.7102,431.9922z"/>
			<path d="M642.3881,432.0908c0,13.2411-8.7944,22.4304-22.4304,22.4304c-13.5374,0-22.5294-9.1893-22.5294-22.4304
				c0-13.9328,8.7944-22.5294,22.5294-22.5294C633.5937,409.5613,642.3881,418.7511,642.3881,432.0908z M634.5822,432.0908
				c0-9.0907-5.8301-15.3161-14.6245-15.3161c-8.6957,0-14.723,6.2254-14.723,15.3161c0,8.9921,6.0273,15.3161,14.723,15.3161
				C628.4558,447.4069,634.5822,441.0829,634.5822,432.0908z"/>
			<path d="M694.261,432.0908c0,13.2411-8.7944,22.4304-22.4304,22.4304c-13.5374,0-22.5295-9.1893-22.5295-22.4304
				c0-13.9328,8.7944-22.5294,22.5295-22.5294C685.4667,409.5613,694.261,418.7511,694.261,432.0908z M686.4551,432.0908
				c0-9.0907-5.83-15.3161-14.6244-15.3161c-8.6958,0-14.723,6.2254-14.723,15.3161c0,8.9921,6.0272,15.3161,14.723,15.3161
				C680.3288,447.4069,686.4551,441.0829,686.4551,432.0908z"/>
			<path d="M749.3966,444.9365c0,0-0.7908,9.5847-10.9684,9.5847c-9.4861,0-8.7944-15.8101-15.0193-19.8614
				c-1.581-0.9879-2.9643-1.3833-4.0513-1.581l-6.7194,6.8185v6.818h7.312v6.818h-22.7266v-6.818h7.312c0,0,0-56.3237,0-57.4102
				c0-4.5458,0-6.1263-7.312-4.5458v-6.818c0,0,3.6559-1.0865,7.0157-1.0865c5.83,0,8.399,3.2606,8.399,9.1892
				c0,2.3718,0,43.6756,0,43.6756l12.2527-12.2532H719.95v-6.818h22.6286v6.818h-7.7074l-9.486,9.5851
				c2.2727,0.5926,4.743,1.9759,6.5212,5.0393c4.0513,6.7194,4.0513,14.723,6.7194,15.217c2.9643,0.593,3.6559-2.3713,3.9528-3.8537
				L749.3966,444.9365z"/>
		</g>
	</g>
	<path d="M843.1653,607.1271l-21.8716-42.2995c0,0-136.341-64.5218-308.3782-26.3881c12.9822-3.4414,27.3912-6.814,42.8109-9.7594
		c5.2484-1.0828,10.652-1.894,16.1163-2.8582c5.4738-0.9069,11.0609-1.6461,16.7009-2.4855
		c2.8306-0.3386,5.6782-0.6793,8.5404-1.0218c2.8638-0.3258,5.7342-0.7328,8.6346-0.9637c2.8965-0.2676,5.8056-0.5366,8.7246-0.8062
		c1.46-0.1285,2.9208-0.2845,4.387-0.3914c1.4672-0.0938,2.9364-0.1875,4.4079-0.2814c23.5323-1.6216,47.663-1.6918,70.9762,0.0048
		c11.6564,0.8321,23.1051,2.1133,34.1722,3.7667c1.3856,0.1937,2.7659,0.3867,4.1412,0.5789
		c1.3729,0.2061,2.7288,0.4816,4.0859,0.7174c2.7109,0.4895,5.4001,0.9752,8.0649,1.4564c2.6606,0.5027,5.3187,0.8959,7.9001,1.5267
		c1.6843,0.3766,3.3515,0.7493,5.0002,1.1179c3.7885,0.8464,7.2371,1.6168,10.1307,2.2632c2.8642,0.7631,5.179,1.3798,6.7316,1.7934
		c11.7562,2.9261,18.5779,3.9495,29.1468,4.5759c-8.9315-5.4383-15.1647-9.1628-27.1131-12.2668
		c-1.5805-0.4297-3.9371-1.0705-6.8531-1.8633c-2.9471-0.6643-6.46-1.4559-10.3188-2.3257
		c-1.6801-0.3757-3.3791-0.7557-5.0953-1.1395c-2.6314-0.6415-5.3373-1.0445-8.0474-1.5568
		c-2.7146-0.4904-5.4534-0.985-8.2148-1.4838c-1.3821-0.2401-2.7639-0.52-4.1616-0.73c-1.4-0.1962-2.8052-0.393-4.2157-0.5907
		c-11.268-1.6837-22.9191-2.9871-34.7744-3.833c-23.7121-1.7245-48.2267-1.6486-72.1086,0.0012
		c-1.4934,0.0957-2.9847,0.1915-4.4739,0.287c-1.4882,0.1088-2.9695,0.2666-4.4507,0.3973
		c-2.9616,0.2742-5.9127,0.5476-8.8514,0.8198c-2.9429,0.2357-5.8532,0.6477-8.7576,0.9788
		c-2.9025,0.3481-5.7902,0.6943-8.6609,1.0385c-5.7178,0.851-11.3823,1.6029-16.93,2.5233
		c-5.5377,0.9772-11.0148,1.8029-16.3324,2.9002c-21.3309,4.08-40.7546,8.9644-57.1807,13.7328
		c-8.5693,2.5121-16.3147,4.9736-23.1195,7.2511c7.1068-3.0546,15.3689-6.4349,24.6341-9.9293
		c16.0078-6.0477,35.0274-12.3221,55.9945-17.8571c20.9619-5.5282,43.8898-10.3106,67.5633-13.2175
		c23.6578-2.967,48.0252-4.205,71.623-3.3593c5.9075,0.0559,11.7413,0.6363,17.5258,0.9968
		c1.4454,0.1006,2.8869,0.201,4.3243,0.3011c1.4356,0.1188,2.8597,0.3123,4.2834,0.464c2.8453,0.3226,5.6732,0.643,8.481,0.9612
		c1.4037,0.1588,2.8027,0.3171,4.1962,0.4748c1.392,0.1681,2.7659,0.4262,4.1412,0.6335c2.7475,0.4377,5.473,0.8719,8.1737,1.3022
		c2.6976,0.4468,5.3886,0.7958,8.0038,1.3992c1.598,0.3323,3.1794,0.6612,4.7438,0.9865c3.7795,0.7849,7.2198,1.4995,10.107,2.099
		c2.8555,0.7333,5.1641,1.3262,6.7134,1.7242c11.7729,2.7943,18.5724,3.8274,29.1515,4.4171
		c-8.9432-5.4022-15.1943-9.1493-27.1928-12.1276c-1.582-0.4148-3.9383-1.0326-6.8536-1.797
		c-2.9487-0.6183-6.4625-1.3552-10.3226-2.1646c-1.5981-0.3325-3.2145-0.6686-4.847-1.0081
		c-2.6733-0.6147-5.42-0.9741-8.1752-1.4309c-2.7582-0.4394-5.5413-0.883-8.3472-1.33c-1.4045-0.2115-2.8082-0.4741-4.2291-0.6461
		c-1.4222-0.1613-2.8498-0.3234-4.2827-0.4861c-2.8655-0.3248-5.7516-0.6518-8.6559-0.981
		c-1.4528-0.1546-2.9069-0.3512-4.3713-0.4726c-1.4662-0.1024-2.9366-0.2053-4.4109-0.3084
		c-5.8992-0.3697-11.8528-0.9567-17.8723-1.0162c-24.0569-0.8611-48.8613,0.4046-72.9098,3.425
		c-24.0659,2.9603-47.3376,7.8203-68.5988,13.4327c-21.2669,5.6195-40.542,11.9855-56.7669,18.1203
		c-16.2313,6.1271-29.4535,11.9173-38.7934,16.2413c-9.3439,4.3182-14.8147,7.1678-15.5364,7.5184
		c-4.3088,2.1942-6.4874,3.3557-7.5958,3.9542c-1.1094,0.5942-1.1503,0.6161-1.1503,0.6161s-1.1324,0.6205-3.2693,1.7917
		l-0.246-0.1688c-1.6306-1.1337-3.517-2.3929-5.6485-3.7789c-8.5252-5.5262-21.0667-12.8978-36.8888-20.7079
		c-15.8441-7.7399-34.9382-15.9943-56.3911-23.1178c-10.6841-3.6856-22.0116-6.8748-33.666-9.978
		c-2.9325-0.703-5.8831-1.4103-8.8497-2.1214c-2.9708-0.6938-5.9418-1.4615-8.9694-2.0378
		c-6.0407-1.2151-12.111-2.5732-18.2911-3.5388c-24.6378-4.2995-50.178-6.7215-75.0423-7.0857
		c-24.8676-0.4-49.0269,1.2709-70.9821,4.1962c-2.7468,0.3546-5.4627,0.7052-8.1454,1.0515
		c-2.6733,0.4066-5.3011,0.8895-7.9001,1.3216c-2.5973,0.4429-5.1591,0.8798-7.6828,1.3101
		c-1.2618,0.2154-2.5142,0.429-3.7567,0.641c-0.6205,0.1102-1.2418,0.2027-1.8545,0.3259l-1.016,0.2163
		c-1.7827,0.3813-3.4473,0.7374-4.9651,1.062c-3.0343,0.6542-5.4815,1.1818-7.1118,1.5334
		c-3.0057,0.6689-5.6802,1.2955-8.1168,2.0549c-2.4259,0.8046-4.639,1.637-6.7678,2.528
		c-4.2575,1.7819-8.1805,3.7985-12.7867,6.2906c5.2865-0.0438,9.6685-0.156,14.2027-0.6278
		c2.2669-0.2359,4.5714-0.5615,7.0441-1.0127c2.4833-0.4061,5.1588-0.8329,8.1249-1.4616c1.6069-0.3376,4.0191-0.8443,7.01-1.4727
		c1.495-0.3166,3.1345-0.6638,4.8904-1.0357l1.0004-0.2128c0.6033-0.1212,1.2148-0.2117,1.8255-0.3198
		c1.223-0.2082,2.4557-0.4178,3.6976-0.6292c2.4841-0.4229,5.0054-0.8521,7.5619-1.2874c2.5579-0.4248,5.1442-0.9007,7.7751-1.3005
		c2.6397-0.3398,5.3122-0.684,8.015-1.0319c21.6034-2.8757,45.3646-4.5187,69.8176-4.1264
		c24.4498,0.3568,49.5607,2.7358,73.7866,6.9587c6.077,0.9466,12.0454,2.2836,17.9854,3.4759
		c2.9774,0.5649,5.8984,1.3207,8.8194,2.0023c2.9173,0.6984,5.8186,1.393,8.7023,2.0833
		c11.4589,3.0507,22.5984,6.1812,33.1025,9.8036c21.0934,6.9971,39.8605,15.1069,55.4134,22.6976
		c6.2909,3.1029,12.0396,6.131,17.2151,8.9952c-4.696-1.8538-9.7744-3.7595-15.2207-5.6716
		c-32.6788-11.6569-78.644-22.9027-127.7019-27.0847c-24.4978-2.19-49.6923-2.7889-74.1205-1.7859
		c-24.4321,0.9759-48.0775,3.5608-69.581,7.0123c-2.6904,0.4191-5.3508,0.8335-7.9785,1.2427
		c-2.6126,0.4944-5.1929,0.9827-7.7382,1.4644c-2.545,0.483-5.0554,0.9595-7.5283,1.4289c-1.2364,0.2348-2.4636,0.4678-3.6811,0.699
		c-0.6078,0.1202-1.2173,0.2208-1.8168,0.3557l-0.9994,0.2245c-1.7757,0.4008-3.4339,0.7748-4.9457,1.1159
		c-3.0226,0.6871-5.4603,1.2411-7.0842,1.6104c-2.9944,0.6995-5.6563,1.3614-8.0842,2.1384
		c-2.4192,0.8127-4.6259,1.6525-6.7489,2.5508c-4.2459,1.7963-8.159,3.8265-12.7603,6.3369
		c5.2819-0.062,9.6659-0.1912,14.2034-0.681c2.2686-0.2448,4.5751-0.5797,7.0498-1.041c2.4834-0.4256,5.1559-0.8896,8.1195-1.5504
		c1.6055-0.3561,4.0154-0.8905,7.0034-1.5532c1.4934-0.3337,3.1314-0.6997,4.8856-1.0917l0.9868-0.2214
		c0.5921-0.1332,1.1936-0.2319,1.7936-0.3503c1.2021-0.2277,2.4136-0.4573,3.6341-0.6885c2.4413-0.4628,4.9195-0.9324,7.432-1.4086
		c2.5127-0.4753,5.0597-0.957,7.6389-1.4449c2.5934-0.4033,5.2191-0.8115,7.8744-1.2242
		c21.2233-3.4037,44.5525-5.9538,68.6505-6.9175c24.094-0.9907,48.9375-0.4023,73.0874,1.7526
		c48.3588,4.1125,93.6567,15.1894,125.7646,26.6334c1.7578,0.6165,3.4698,1.2318,5.1494,1.8453
		C196.2105,489.5,37.037,564.8276,37.037,564.8276l-21.8717,42.2995h399.1782c3.6707,4.0281,8.9425,6.5715,14.8219,6.5715
		c5.8791,0,11.1512-2.5435,14.8219-6.5715H843.1653z M623.7194,541.8324c23.7845-0.8758,48.1403-0.2853,71.6701,1.9261
		c11.7642,1.1,23.3195,2.5961,34.4951,4.4326c1.3987,0.2172,2.7928,0.4337,4.1813,0.6494c1.3808,0.2624,2.7562,0.5237,4.1263,0.784
		c2.7385,0.528,5.4553,1.0518,8.1473,1.5708c2.6887,0.5359,5.3707,0.982,7.9818,1.637c1.707,0.3971,3.3968,0.7902,5.0679,1.1788
		c3.8489,0.9022,7.3525,1.7233,10.2922,2.4124c2.9103,0.8074,5.2621,1.4599,6.8392,1.8975
		c11.9193,3.1754,18.1425,6.887,27.0673,12.3459c-10.5631-0.6476-17.3978-1.6653-29.1438-4.6664
		c-1.5516-0.4219-3.8651-1.051-6.7281-1.8295c-2.8904-0.6718-6.3353-1.4725-10.1199-2.3521
		c-1.6425-0.3818-3.3032-0.7679-4.9811-1.1581c-2.5652-0.6448-5.2034-1.0814-7.8467-1.608c-2.6472-0.5103-5.3182-1.025-8.0111-1.544
		c-1.347-0.2562-2.6994-0.5134-4.0571-0.7716c-1.3659-0.2117-2.7372-0.4243-4.1133-0.6376
		c-10.9921-1.806-22.3629-3.2786-33.9449-4.3618c-23.1653-2.1783-47.1677-2.7643-70.6279-1.9044
		c-23.4636,0.8397-46.3828,3.0981-67.4664,6.2934c-21.0919,3.1556-40.3647,7.1118-56.6956,11.0512
		c-16.3322,3.9498-29.7177,7.8916-39.1711,10.8536c-5.8524,1.8342-10.1926,3.299-12.8066,4.2v-8.4053
		c8.4398-2.8583,26.1446-8.5672,50.0995-14.3999c16.5326-3.9936,36.0382-8.0037,57.3943-11.2041
		C576.7147,544.9822,599.9308,542.688,623.7194,541.8324z M429.4063,554.5415c-0.0005,0.0002-0.0008,0.0004-0.0013,0.0007
		l0.0002-0.0007h0.0005l0.0002,0.0001C429.4092,554.544,429.4065,554.5418,429.4063,554.5415z M355.2981,564.9037
		c-4.8065-1.0641-9.737-2.2595-14.8483-3.2465c-2.5518-0.5103-5.1284-1.0614-7.7472-1.5563
		c-2.6232-0.4731-5.2761-0.9516-7.9566-1.435c-2.676-0.5069-5.3936-0.9396-8.1391-1.36c-2.7435-0.4308-5.5121-0.8656-8.3036-1.3039
		c-2.8012-0.3731-5.6251-0.7491-8.4697-1.128c-2.8441-0.3828-5.7073-0.7752-8.6027-1.0615
		c-2.8916-0.3146-5.8014-0.631-8.7267-0.9491c-2.9225-0.3486-5.8784-0.5212-8.8377-0.7926
		c-2.9625-0.2388-5.9351-0.5194-8.9243-0.7273c-2.9915-0.1746-5.9941-0.35-9.0053-0.5259
		c-24.092-1.342-48.8151-1.2397-72.767,0.2678c-23.956,1.4836-47.1246,4.3787-68.2104,7.9862
		c-2.6382,0.4391-5.2468,0.8732-7.8232,1.3019c-2.5629,0.5058-5.0938,1.0052-7.5906,1.498
		c-2.4969,0.4925-4.9594,0.9782-7.3855,1.4568c-1.213,0.2393-2.417,0.4767-3.6113,0.712c-0.5963,0.1224-1.1943,0.2249-1.7824,0.3622
		l-0.9821,0.2249c-1.7534,0.4-3.3907,0.7734-4.8834,1.114c-2.9869,0.6763-5.3956,1.2219-7.0004,1.5852
		c-2.9626,0.6736-5.6337,1.1525-8.1172,1.5858c-2.4756,0.4652-4.7829,0.8038-7.052,1.0523
		c-4.5389,0.4969-8.9236,0.6329-14.2037,0.7023c4.5995-2.5177,8.5086-4.5533,12.7496-6.3554
		c2.1208-0.9012,4.325-1.744,6.7414-2.5598c2.4244-0.7839,5.0813-1.46,8.0709-2.1716c1.6215-0.3762,4.0552-0.9409,7.073-1.641
		c1.5094-0.3477,3.1649-0.7291,4.938-1.1373l0.9933-0.228c0.5951-0.1389,1.2001-0.2431,1.8033-0.367
		c1.2085-0.2389,2.4265-0.4795,3.6537-0.722c2.4547-0.4849,4.9463-0.977,7.4726-1.4759c2.5264-0.4988,5.0871-1.0044,7.6802-1.5164
		c2.6075-0.4346,5.2473-0.8746,7.9171-1.3197c21.3382-3.6536,44.7917-6.5845,69.0495-8.0856
		c24.2539-1.5252,49.2958-1.6265,73.7065-0.2628c3.051,0.1789,6.0932,0.3574,9.1244,0.5352
		c3.0289,0.2111,6.0418,0.4955,9.0437,0.7382c2.9993,0.2753,5.9941,0.4521,8.9565,0.8053c2.9651,0.3231,5.9145,0.6443,8.8454,0.9637
		c2.9339,0.2914,5.8373,0.6895,8.7204,1.0779c2.8837,0.3849,5.7466,0.7671,8.5865,1.1462c2.8306,0.4449,5.6381,0.8862,8.4202,1.3237
		c2.7838,0.4271,5.5392,0.8669,8.2541,1.3815c2.7186,0.4911,5.4095,0.9771,8.0701,1.4579c2.6566,0.5028,5.2716,1.0623,7.8605,1.5809
		c5.1847,1.0037,10.1914,2.217,15.0696,3.2996c9.7141,2.354,18.8132,4.6828,27.077,7.1776
		c9.8847,2.9053,18.6121,5.8416,26.0042,8.5516v8.4945c-7.7698-2.9175-17.286-6.1766-28.2614-9.3983
		C373.8248,569.5091,364.8646,567.22,355.2981,564.9037z"/>
</g>
</svg>
